<svg xmlns="http://www.w3.org/2000/svg" width="30" height="30" viewBox="0 0 30 30">
  <g id="Group_15474" data-name="Group 15474" transform="translate(-968 -286)">
    <g id="Group_14670" data-name="Group 14670" transform="translate(970 291)">
      <path id="Path_2903" data-name="Path 2903" d="M47.83,43.642a.39.39,0,0,0-.066-.231L45.249,37.22a.475.475,0,0,0-.4-.21H24.981a.477.477,0,0,0-.4.21l-2.515,6.193a.4.4,0,0,0-.066.231,3.208,3.208,0,0,0,2.084,2.7v9.361a1.166,1.166,0,0,0,1.19,1.138H44.6a1.166,1.166,0,0,0,1.19-1.138V46.384A3.144,3.144,0,0,0,47.83,43.642ZM26.06,38.96H43.767l1.978,4.868a1.359,1.359,0,0,1-1.312.868,1.41,1.41,0,0,1-1.19-.61,2.347,2.347,0,0,0-3.909,0,1.465,1.465,0,0,1-2.386-.01,2.326,2.326,0,0,0-3.9,0,1.465,1.465,0,0,1-2.393,0,2.326,2.326,0,0,0-3.9,0,1.406,1.406,0,0,1-1.2.619,1.608,1.608,0,0,1-1.475-.886Zm.061,15.934V46.6a3.4,3.4,0,0,0,2.389-1.525.238.238,0,0,1,.4,0,3.551,3.551,0,0,0,5.89,0,.238.238,0,0,1,.4,0,3.552,3.552,0,0,0,5.873.028.254.254,0,0,1,.218-.117.258.258,0,0,1,.218.117,3.4,3.4,0,0,0,2.247,1.476v8.312Z" transform="translate(-21.998 -37.01)" fill="#160e4d"/>
    </g>
    <g id="Line" transform="translate(968.081 286)">
      <rect id="Rectangle_2029" data-name="Rectangle 2029" width="30" height="30" transform="translate(-0.08 0)" fill="none"/>
    </g>
  </g>
</svg>
